Coordinates
version=1
nRows=43
nColumns=12
inDegrees=yes

Units are S.I. units (second, meters, Newtons, ...)
Angles are in degrees

endheader
time	SC_y	SC_z	SC_x	AC_y	AC_z	AC_x	GH_y	GH_z	GH_yy	EL_x	PS_y
       0.0              -47.04         -3.908          37.57          57.47          5.242          11.08          148.3          53.16          102.0           12.9          17.59
   0.04143              -47.04         -3.904          37.57          57.47          5.239          11.08          148.3          53.16          102.0          12.92          17.61
   0.08286              -47.04         -3.899          37.57          57.47          5.237          11.07          148.2          53.15          102.0          12.94          17.63
    0.1243              -47.04         -3.894          37.56          57.47          5.234          11.07          148.2          53.15          102.0          12.96          17.65
    0.1657              -47.04         -3.889          37.56          57.46           5.23          11.06          148.2          53.14          102.0          12.97          17.67
    0.2071              -47.03         -3.884          37.55          57.46          5.227          11.06          148.2          53.13          102.0           13.0           17.7
    0.2486              -47.03         -3.878          37.55          57.45          5.223          11.06          148.2          53.12          102.1          13.02          17.72
      0.29              -47.03         -3.871          37.55          57.45          5.219          11.05          148.2          53.12          102.1          13.04          17.75
    0.3314              -47.03         -3.865          37.54          57.45          5.215          11.05          148.2          53.11          102.1          13.07          17.78
    0.3729              -47.03         -3.857          37.53          57.44           5.21          11.04          148.1           53.1          102.1           13.1          17.81
    0.4143              -47.02          -3.85          37.53          57.44          5.205          11.04          148.1          53.09          102.1          13.13          17.84
    0.4557              -47.02         -3.841          37.52          57.43            5.2          11.03          148.1          53.08          102.1          13.16          17.87
    0.4972              -47.02         -3.832          37.52          57.43          5.194          11.02          148.1          53.06          102.2          13.19          17.91
    0.5386              -47.02         -3.822          37.51          57.42          5.188          11.02          148.1          53.05          102.2          13.23          17.95
      0.58              -47.01         -3.812           37.5          57.41          5.182          11.01          148.0          53.04          102.2          13.27           18.0
    0.6214              -47.01           -3.8          37.49          57.41          5.174           11.0          148.0          53.02          102.2          13.31          18.04
    0.6629              -47.01         -3.788          37.48           57.4          5.166          10.99          148.0          53.01          102.2          13.36           18.1
    0.7043               -47.0         -3.774          37.47          57.39          5.158          10.98          147.9          52.99          102.3          13.41          18.15
    0.7457               -47.0          -3.76          37.46          57.38          5.149          10.97          147.9          52.97          102.3          13.47          18.22
    0.7872               -47.0         -3.743          37.45          57.37          5.138          10.96          147.9          52.95          102.3          13.53          18.28
    0.8286              -46.99         -3.726          37.44          57.36          5.127          10.95          147.8          52.92          102.4           13.6          18.36
      0.87              -46.99         -3.706          37.42          57.35          5.115          10.93          147.8           52.9          102.4          13.67          18.44
    0.9115              -46.98         -3.684           37.4          57.33          5.101          10.92          147.7          52.87          102.5          13.75          18.53
    0.9529              -46.97          -3.66          37.39          57.32          5.086           10.9          147.7          52.84          102.5          13.84          18.63
    0.9943              -46.97         -3.634          37.37           57.3          5.069          10.88          147.6           52.8          102.6          13.95          18.74
     1.036              -46.96         -3.604          37.34          57.28          5.051          10.86          147.5          52.76          102.6          14.06          18.87
     1.077              -46.95         -3.571          37.32          57.26           5.03          10.83          147.5          52.72          102.7          14.19           19.0
     1.119              -46.94         -3.533          37.29          57.24          5.006          10.81          147.4          52.67          102.8          14.33          19.16
      1.16              -46.93         -3.491          37.26          57.21          4.979          10.78          147.3          52.62          102.9          14.49          19.34
     1.201              -46.91         -3.443          37.22          57.18          4.949          10.74          147.1          52.55          103.0          14.67          19.54
     1.243               -46.9         -3.388          37.18          57.15          4.914           10.7          147.0          52.48          103.1          14.88          19.77
     1.284              -46.88         -3.325          37.13          57.11          4.875          10.66          146.9           52.4          103.3          15.12          20.03
     1.326              -46.86         -3.253          37.08          57.07          4.829           10.6          146.7           52.3          103.4           15.4          20.34
     1.367              -46.84         -3.168          37.02          57.01          4.776          10.54          146.5          52.19          103.6          15.72          20.69
     1.409              -46.81         -3.069          36.94          56.95          4.713          10.47          146.2          52.06          103.8          16.09           21.1
      1.45              -46.78         -2.953          36.86          56.88           4.64          10.39          146.0          51.91          104.1          16.54          21.59
     1.491              -46.74         -2.814          36.75          56.79          4.552          10.29          145.6          51.73          104.4          17.07          22.17
     1.533               -46.7         -2.649          36.63          56.69          4.448          10.17          145.2          51.51          104.7           17.7          22.86
     1.574              -46.64         -2.448          36.48          56.56          4.321          10.02          144.8          51.24          105.2          18.46           23.7
     1.616              -46.57         -2.203          36.29          56.41          4.167          9.842          144.2          50.92          105.7          19.39          24.73
     1.657              -46.49           -1.9          36.06          56.22          3.976          9.622          143.4          50.52          106.3          20.55          25.99
     1.699              -46.39         -1.523          35.78          55.99          3.738          9.349          142.5          50.02          107.2          21.98          27.57
      1.74              -46.26         -1.047          35.42          55.69          3.438          9.004          141.4           49.4          108.2          23.79          29.56
